<svg width="24" height="24" viewBox="0 0 24 24" fill="none" xmlns="http://www.w3.org/2000/svg">
<path d="M7.45927 3.89185H5.83765H4.86468C4.54036 3.99995 3.89171 4.3459 3.89171 4.86482C3.89171 5.51347 3.56738 5.51347 3.56738 6.81076C3.56738 8.10806 3.56738 7.45941 3.89171 8.10806C4.21603 8.75671 3.89171 8.75671 4.21603 9.08104C4.54036 9.40536 4.37245 9.40536 4.54036 10.3783C4.70826 11.3513 5.189 11.3513 5.51333 12C5.83765 12.6486 5.83765 12.3243 5.83765 12.9729C5.83765 13.6216 6.16198 13.2973 6.81063 13.9459C7.45927 14.5945 7.13495 14.2702 7.45927 14.9189C7.7836 15.5675 8.43225 15.5675 9.0809 16.2162C9.72954 16.8648 10.0539 17.5135 10.3782 17.8378C10.7025 18.1621 11.3512 18.1621 11.6755 18.4864C11.9998 18.8108 13.6214 19.7837 14.2701 19.7837C14.9187 19.7837 15.2431 20.1081 15.8917 19.7837C16.5404 19.4594 16.5404 20.1081 17.5133 19.7837C18.4863 19.4594 18.162 19.7837 19.4593 19.1351L20.1079 18.8108C20.216 18.5945 20.4322 18.0973 20.4322 17.8378C20.4322 17.5783 20.216 17.2973 20.1079 17.1891C19.9998 16.9729 19.7187 16.4756 19.4593 16.2162C19.1349 15.8918 18.8106 15.8918 18.8106 15.5675C18.8106 15.3081 18.3782 15.2432 18.162 15.2432C17.9458 15.1351 17.3836 14.9189 16.8647 14.9189C16.216 14.9189 15.8917 14.9189 15.5674 15.2432C15.3079 15.5027 15.2431 15.7837 15.2431 15.8918C14.8106 15.8918 13.8809 15.827 13.6214 15.5675C13.362 15.3081 11.5674 14.5945 10.7025 14.2702L9.40522 13.6216C9.0809 13.1891 8.43225 12.1945 8.43225 11.6756C8.43225 11.027 7.7836 10.7027 7.7836 10.3783C7.7836 10.054 7.7836 10.054 8.43225 9.40536C9.0809 8.75671 8.75657 8.43239 9.0809 8.10806C9.34036 7.8486 8.97279 6.91887 8.75657 6.48644L7.45927 3.89185Z" fill="white"/>
<path fill-rule="evenodd" clip-rule="evenodd" d="M9.207 14.1445C11.525 16.4625 13.678 17.7545 15.28 18.4725C16.679 19.0995 18.33 19.2561 19.617 17.9691L19.911 17.6741L16.375 15.4241C15.703 16.4041 14.432 16.9791 13.163 16.4441C12.202 16.0381 10.93 15.3441 9.793 14.2071C8.656 13.0701 7.963 11.7981 7.557 10.8371C7.021 9.56814 7.595 8.29714 8.576 7.62514L6.326 4.08914L6.031 4.38314C4.744 5.67014 4.253 6.67249 4.879 8.07149C5.597 9.67349 6.889 11.8265 9.207 14.1445ZM14.463 20.2975C12.648 19.4845 10.291 18.0565 7.793 15.5585C5.295 13.0615 3.867 10.7035 3.053 8.88849C1.978 6.48849 2.96 4.62714 4.617 2.96914L4.911 2.67414C5.12275 2.46226 5.37938 2.30064 5.66195 2.20124C5.94453 2.10183 6.24582 2.06716 6.54359 2.0998C6.84135 2.13243 7.12799 2.23154 7.38232 2.3898C7.63665 2.54806 7.85218 2.76142 8.013 3.01414L10.843 7.46414C10.918 7.58218 10.9673 7.71463 10.9879 7.85293C11.0085 7.99124 10.9999 8.13232 10.9626 8.26708C10.9252 8.40183 10.8601 8.52727 10.7713 8.63528C10.6825 8.74329 10.572 8.83147 10.447 8.89414L9.814 9.21114C9.382 9.42714 9.294 9.80814 9.399 10.0591C9.738 10.8621 10.305 11.8901 11.207 12.7931C12.11 13.6951 13.138 14.2621 13.941 14.6011C14.192 14.7071 14.573 14.6181 14.789 14.1861L15.106 13.5531C15.1686 13.4281 15.2567 13.3175 15.3647 13.2286C15.4726 13.1397 15.5981 13.0744 15.7328 13.037C15.8676 12.9996 16.0087 12.9909 16.147 13.0114C16.2854 13.0319 16.4179 13.0812 16.536 13.1561L20.986 15.9871C21.2387 16.148 21.4521 16.3635 21.6103 16.6178C21.7686 16.8722 21.8677 17.1588 21.9003 17.4566C21.933 17.7543 21.8983 18.0556 21.7989 18.3382C21.6995 18.6208 21.5379 18.8774 21.326 19.0891L21.031 19.3831C19.374 21.0411 16.864 21.3735 14.463 20.2975Z" fill="white"/>
</svg>
